<?xml version="1.0" standalone="no"?>
<!DOCTYPE svg PUBLIC "-//W3C//DTD SVG 20010904//EN"
 "http://www.w3.org/TR/2001/REC-SVG-20010904/DTD/svg10.dtd">
<svg version="1.0" xmlns="http://www.w3.org/2000/svg"
 width="700.000000pt" height="700.000000pt" viewBox="0 0 700.000000 700.000000"
 preserveAspectRatio="xMidYMid meet">
<metadata>
Created by potrace 1.14, written by Peter Selinger 2001-2017
</metadata>
<g transform="translate(0.000000,700.000000) scale(0.100000,-0.100000)"
fill="#000000" stroke="none">
<path d="M1397 6409 c-20 -5 -55 -18 -77 -29 -23 -12 -226 -208 -508 -490
-354 -354 -475 -482 -493 -517 -32 -69 -32 -180 1 -245 50 -100 131 -156 238
-165 54 -4 83 -1 123 13 50 17 91 54 531 492 335 334 485 490 505 526 24 44
28 61 27 131 0 66 -5 89 -26 131 -61 116 -197 181 -321 153z"/>
<path d="M5470 6406 c-180 -47 -271 -248 -187 -412 34 -65 952 -981 1012
-1010 56 -26 185 -26 240 0 160 77 220 271 128 419 -13 20 -231 245 -485 498
-495 495 -504 503 -613 513 -28 2 -70 -1 -95 -8z"/>
<path d="M3427 5834 c-1 -1 -53 -5 -116 -8 -63 -4 -117 -8 -120 -10 -3 -2 -28
-6 -56 -10 -27 -3 -61 -8 -75 -11 -14 -3 -41 -7 -60 -10 -19 -3 -59 -11 -88
-19 -29 -8 -56 -15 -60 -15 -25 -4 -101 -27 -192 -57 -725 -242 -1319 -807
-1605 -1529 -15 -38 -28 -74 -29 -80 -1 -5 -4 -14 -8 -20 -24 -40 -108 -398
-123 -525 -79 -695 99 -1369 503 -1903 29 -37 52 -71 52 -75 0 -4 -91 -95
-202 -202 -110 -107 -225 -218 -253 -246 -66 -64 -100 -117 -112 -174 -41
-191 110 -366 305 -354 109 7 108 6 541 427 99 96 146 136 154 129 94 -72 147
-112 151 -112 3 0 32 -18 66 -41 227 -150 598 -299 885 -355 11 -2 31 -6 45
-9 14 -3 63 -10 110 -16 47 -6 103 -13 125 -16 82 -10 379 -8 488 3 158 18
246 32 357 60 36 9 75 18 86 20 31 6 247 81 319 111 172 72 362 179 519 293
57 41 102 67 109 63 7 -4 123 -118 260 -253 271 -268 312 -299 408 -304 220
-14 377 209 286 408 -21 45 -70 99 -287 314 l-262 258 60 80 c153 202 266 418
381 724 36 96 81 286 106 450 41 261 37 612 -9 836 -2 12 -7 37 -10 55 -28
166 -103 397 -197 604 -33 71 -71 147 -84 167 -14 21 -25 40 -25 44 0 4 -38
63 -84 133 -332 498 -813 864 -1374 1045 -156 50 -315 87 -442 102 -25 3 -51
7 -59 10 -21 7 -377 24 -384 18z m318 -598 c22 -3 55 -8 73 -11 125 -19 375
-85 397 -106 5 -5 15 -9 23 -9 32 0 332 -152 340 -172 2 -4 8 -8 13 -8 5 0 33
-16 62 -36 227 -158 438 -379 579 -606 57 -92 138 -251 163 -318 63 -173 103
-325 130 -492 27 -174 19 -438 -20 -654 -72 -394 -265 -756 -564 -1055 -212
-212 -438 -361 -711 -468 -131 -51 -307 -96 -430 -111 -47 -6 -103 -13 -125
-16 -59 -7 -280 -7 -355 1 -351 35 -668 147 -951 335 -92 62 -98 66 -198 151
-161 137 -337 348 -436 521 -99 175 -199 425 -221 552 -2 17 -7 38 -9 46 -8
27 -19 96 -34 200 -16 110 -10 394 11 526 79 509 322 943 706 1265 309 258
691 423 1077 465 33 3 62 8 64 10 6 5 371 -3 416 -10z"/>
<path d="M3423 4655 c-83 -25 -153 -84 -190 -162 -17 -36 -18 -81 -18 -703 l0
-665 24 -45 c36 -69 651 -684 716 -715 114 -55 249 -31 343 62 12 12 22 25 22
29 0 3 9 18 20 34 41 57 44 173 7 254 -21 46 -74 104 -291 322 l-266 266 0
547 c0 612 1 603 -70 683 -75 86 -197 124 -297 93z"/>
</g>
</svg>
